# File created by Blade
# Date/Time:  Thu Jan 22 16:36:26 2015
# Frame Rate: 120.000 fps
#------------------------------------------------------
:FULLY-SPECIFIED
:DEGREES
2920
root 3.312352 3.848913 -12.412148 -47.067977 21.064079 1.994013
RightUpLeg -80.321352 -20.182571 -2.809426
RightLeg 83.416103 -0.000000 -0.000000
RightFoot 4.349506 -21.992196 22.404572
RightToeBase -356.372874 -0.000000 -0.000000
LeftUpLeg -84.170610 1.407267 -6.548881
LeftLeg 96.029542 -0.000000 -0.000000
LeftFoot 20.489566 12.847894 -26.264262
LeftToeBase -1.511571 -0.000000 0.000000
Spine 71.132588 -3.375970 -6.671916
RightShoulder 6.404469 -20.418945 -32.165758
RightArm 15.171221 -31.879286 75.469829
RightForeArm 66.358947 -0.000000 62.965665
RightHand 10.409608 -0.000000 -23.908217
RightHandThumb1 -24.326973 -0.000000 -32.862282
LeftShoulder -15.699545 39.280236 22.070432
LeftArm 47.196788 35.671515 -68.599595
LeftForeArm -21.994963 -0.000000 52.850956
LeftHand -37.282608 -0.000000 12.582247
LeftHandThumb1 -26.253704 0.000000 33.147579
Head 24.704169 -4.464341 -9.420896
2921
root 3.313656 3.860817 -12.417554 -46.575683 21.123343 2.092970
RightUpLeg -80.708083 -19.874940 -2.973152
RightLeg 83.420836 -0.000000 -0.000000
RightFoot 4.223356 -22.082516 22.365874
RightToeBase -356.171162 -0.000000 -0.000000
LeftUpLeg -84.556408 1.387692 -6.666550
LeftLeg 95.984512 -0.000000 -0.000000
LeftFoot 20.441444 12.838742 -26.306893
LeftToeBase -1.575484 -0.000000 0.000000
Spine 70.856767 -3.520216 -6.732442
RightShoulder 6.228222 -20.323644 -32.600478
RightArm 15.474786 -32.212071 75.714621
RightForeArm 66.249927 -0.000000 62.153100
RightHand 10.136191 -0.000000 -22.647064
RightHandThumb1 -24.326973 -0.000000 -32.862282
LeftShoulder -15.406962 39.248145 22.390675
LeftArm 47.346427 35.735190 -68.743574
LeftForeArm -22.010447 0.000000 52.063392
LeftHand -36.656223 -0.000000 11.839654
LeftHandThumb1 -26.253704 0.000000 33.147579
Head 24.340961 -4.276171 -9.389232
2922
root 3.316834 3.878699 -12.419775 -46.095309 21.210691 2.201699
RightUpLeg -81.082777 -19.600740 -3.178213
RightLeg 83.446330 -0.000000 -0.000000
RightFoot 4.169935 -22.088546 22.222191
RightToeBase -356.152156 -0.000000 -0.000000
LeftUpLeg -84.914681 1.349321 -6.812147
LeftLeg 95.945991 -0.000000 -0.000000
LeftFoot 20.371540 12.875481 -26.406864
LeftToeBase -1.508926 -0.000000 0.000000
Spine 70.604273 -3.702572 -6.959839
RightShoulder 6.136841 -20.145895 -32.977995
RightArm 15.818887 -32.573618 75.808096
RightForeArm 66.002977 -0.000000 61.358101
RightHand 9.765631 0.000000 -21.075642
RightHandThumb1 -24.326973 -0.000000 -32.862282
LeftShoulder -15.326594 39.282598 22.548636
LeftArm 47.514203 35.777017 -68.888554
LeftForeArm -21.970610 -0.000000 51.262648
LeftHand -36.086783 -0.000000 11.203382
LeftHandThumb1 -26.253704 0.000000 33.147579
Head 23.950422 -4.088645 -9.461640
2923
root 3.319835 3.894479 -12.420166 -45.587760 21.300351 2.311471
RightUpLeg -81.486499 -19.324216 -3.395547
RightLeg 83.487744 -0.000000 -0.000000
RightFoot 4.028816 -22.092798 22.494956
RightToeBase -356.604784 -0.000000 -0.000000
LeftUpLeg -85.303531 1.293228 -6.951045
LeftLeg 95.917447 -0.000000 -0.000000
LeftFoot 20.359425 12.860833 -26.367749
LeftToeBase -1.512701 -0.000000 0.000000
Spine 70.302922 -3.894963 -7.182302
RightShoulder 5.992342 -20.150893 -33.287803
RightArm 16.491391 -32.972313 75.617913
RightForeArm 65.741258 0.000000 60.566985
RightHand 9.437537 0.000000 -19.924582
RightHandThumb1 -24.326973 -0.000000 -32.862282
LeftShoulder -15.206765 39.266871 22.717022
LeftArm 47.550694 35.796051 -69.154119
LeftForeArm -21.888804 -0.000000 50.473588
LeftHand -35.548640 -0.000000 10.468505
LeftHandThumb1 -26.253704 0.000000 33.147579
Head 23.602849 -4.040812 -9.618642
2924
root 3.317513 3.909579 -12.418084 -45.042298 21.379048 2.432777
RightUpLeg -81.941492 -19.037348 -3.568683
RightLeg 83.553144 -0.000000 -0.000000
RightFoot 3.888127 -22.076126 22.314411
RightToeBase -356.506952 -0.000000 -0.000000
LeftUpLeg -85.731111 1.251160 -7.074040
LeftLeg 95.882224 -0.000000 -0.000000
LeftFoot 20.379335 12.835751 -26.360869
LeftToeBase -1.570952 -0.000000 0.000000
Spine 69.959280 -4.082942 -7.452474
RightShoulder 5.903613 -19.995851 -33.512732
RightArm 17.093243 -33.426564 75.357823
RightForeArm 65.604054 -0.000000 59.812453
RightHand 8.962619 0.000000 -18.989067
RightHandThumb1 -24.326973 -0.000000 -32.862282
LeftShoulder -15.236146 39.301468 22.725248
LeftArm 47.710063 35.800058 -69.254492
LeftForeArm -21.860275 -0.000000 49.687189
LeftHand -35.157672 -0.000000 9.795753
LeftHandThumb1 -26.253704 0.000000 33.147579
Head 23.172362 -3.811489 -9.512146
2925
root 3.311002 3.925200 -12.413722 -44.492483 21.440053 2.544724
RightUpLeg -82.397863 -18.726154 -3.765592
RightLeg 83.611384 -0.000000 -0.000000
RightFoot 3.845288 -22.024272 22.193694
RightToeBase -356.567218 -0.000000 -0.000000
LeftUpLeg -86.163792 1.213059 -7.156865
LeftLeg 95.841963 -0.000000 -0.000000
LeftFoot 20.443828 12.816028 -26.425188
LeftToeBase -1.768232 -0.000000 0.000000
Spine 69.588236 -4.213407 -7.667630
RightShoulder 5.817450 -19.947249 -33.616701
RightArm 17.820262 -33.929272 74.877358
RightForeArm 65.586437 -0.000000 59.152596
RightHand 8.582780 0.000000 -18.542081
RightHandThumb1 -24.326973 -0.000000 -32.862282
LeftShoulder -15.160609 39.226680 22.841076
LeftArm 47.838800 35.909092 -69.331331
LeftForeArm -21.569202 -0.000000 48.851115
LeftHand -34.684122 -0.000000 9.605465
LeftHandThumb1 -26.253704 0.000000 33.147579
Head 22.766749 -3.813510 -9.470236
